<svg xmlns="http://www.w3.org/2000/svg" width="28" height="28" fill="none"><g fill="#b8865a" clip-path="url(#a)"><path d="M8.694 16.354A9.554 9.554 0 0 0 0 25.995v.253a1.75 1.75 0 0 0 3.5 0v-.323A6.01 6.01 0 0 1 8.75 19.86a5.84 5.84 0 0 1 6.416 5.805v.584a1.75 1.75 0 1 0 3.5 0v-.584a9.343 9.343 0 0 0-9.972-9.31M9.333 14a7 7 0 1 0-6.999-7 7.006 7.006 0 0 0 7 7m0-10.499a3.5 3.5 0 1 1 0 7 3.5 3.5 0 0 1 0-7M25.664 9.188a2.46 2.46 0 0 0-2.333 2.566 2.46 2.46 0 0 0-2.333-2.566 2.46 2.46 0 0 0-2.333 2.566c0 2.018 2.632 4.383 3.943 5.435a1.16 1.16 0 0 0 1.447 0c1.31-1.05 3.942-3.417 3.942-5.435a2.46 2.46 0 0 0-2.333-2.566"/></g><defs><clipPath id="a"><path fill="#fff" d="M0 0h28v28H0z"/></clipPath></defs></svg>