<svg xmlns="http://www.w3.org/2000/svg" width="28" height="28" fill="none"><g clip-path="url(#a)"><path fill="#b8865a" d="M26.833 1.153A3.95 3.95 0 0 0 23.654.019C20.507.323 9.91 1.64 5.74 5.809A11.67 11.67 0 0 0 4.605 20.92L.512 25.012a1.75 1.75 0 0 0 2.476 2.476l4.091-4.093a11.666 11.666 0 0 0 15.112-1.135c4.227-4.227 5.502-14.793 5.792-17.933a3.95 3.95 0 0 0-1.15-3.174m-7.116 18.631a8.156 8.156 0 0 1-10.127 1.1l9.731-9.73a1.75 1.75 0 1 0-2.475-2.476l-9.73 9.732a8.156 8.156 0 0 1 1.1-10.127c2.66-2.66 10.16-4.237 15.777-4.783a.46.46 0 0 1 .372.132.45.45 0 0 1 .135.373c-.52 5.59-2.081 13.077-4.783 15.78"/></g><defs><clipPath id="a"><path fill="#fff" d="M0 0h28v28H0z"/></clipPath></defs></svg>