<svg xmlns="http://www.w3.org/2000/svg" data-name="Layer 1" viewBox="0 0 24 24" fill='#b8865a'><path d="M11.992 6c1.657 0 2.955-1.318 2.955-3s-1.298-3-2.955-3c-1.679 0-3.045 1.346-3.045 3s1.366 3 3.045 3m0-5c1.096 0 1.955.878 1.955 2s-.859 2-1.955 2c-1.127 0-2.045-.897-2.045-2s.917-2 2.045-2M16 19.207l7 3.923V24H9v-1h11.723L15 19.793V9.031C14.925 9.02 14.852 9 14.775 9h-5.55c-.077 0-.15.02-.225.031v10.762L3.277 23H7v1H1v-.846l7-3.947V9.659c-.037.054-.081.1-.111.16l-2.503 4.912-4.112 2.688-.547-.837 3.888-2.542 2.383-4.674a2.49 2.49 0 0 1 2.227-1.365h5.55a2.49 2.49 0 0 1 2.227 1.365l2.383 4.674 3.888 2.542-.547.837-4.112-2.688-2.503-4.912c-.03-.059-.075-.106-.111-.16z"/></svg>