<svg xmlns="http://www.w3.org/2000/svg" width="28" height="28" fill="none"><g clip-path="url(#a)"><path fill="#b8865a" d="M20.927 2.648A10.31 10.31 0 0 0 12.78.07a10.702 10.702 0 0 0-5.95 18.375c1.114 1.051 1.337 2.555 1.337 4.63v.18A4.724 4.724 0 0 0 12.858 28h2.284a4.724 4.724 0 0 0 4.692-4.746v-.61c0-1.948.175-3.16 1.099-3.984a10.76 10.76 0 0 0 0-16.012zm-4.593 20.606a1.22 1.22 0 0 1-1.192 1.246h-2.284a1.22 1.22 0 0 1-1.191-1.246v-.178c0-.303 0-.606-.017-.91h4.69c0 .16-.006.32-.006.478zm2.269-7.206a6.2 6.2 0 0 0-1.736 2.619H15.75V12.93a3.49 3.49 0 0 0 1.75-3.013 1.75 1.75 0 0 0-3.5 0 1.75 1.75 0 0 0-3.5 0 3.49 3.49 0 0 0 1.75 3.013v5.737h-1.21a7.1 7.1 0 0 0-1.798-2.763A7.21 7.21 0 0 1 7.06 9.706a7.1 7.1 0 0 1 6.124-6.158Q13.59 3.5 14 3.5a6.84 6.84 0 0 1 4.597 1.76 7.26 7.26 0 0 1 .006 10.788"/></g><defs><clipPath id="a"><path fill="#fff" d="M0 0h28v28H0z"/></clipPath></defs></svg>