<svg xmlns="http://www.w3.org/2000/svg" width="28" height="28" fill="none"><g clip-path="url(#a)"><path fill="#b8865a" d="M20.125 2.16A7.66 7.66 0 0 0 14 5.316 7.66 7.66 0 0 0 7.875 2.16 8.207 8.207 0 0 0 0 10.647c0 5.31 5.453 10.995 10.033 14.83a6.17 6.17 0 0 0 7.944 0c4.576-3.835 10.033-9.52 10.033-14.83a8.21 8.21 0 0 0-7.885-8.488m-4.402 20.635a2.68 2.68 0 0 1-3.448 0C6.7 18.12 3.5 13.692 3.5 10.647a4.717 4.717 0 0 1 4.375-4.988 4.717 4.717 0 0 1 4.375 4.988 1.75 1.75 0 0 0 3.5 0 4.717 4.717 0 0 1 4.375-4.988 4.717 4.717 0 0 1 4.375 4.988c0 3.045-3.2 7.472-8.777 12.148"/></g><defs><clipPath id="a"><path fill="#fff" d="M0 0h28v28H0z"/></clipPath></defs></svg>