<svg xmlns="http://www.w3.org/2000/svg" fill="#b8865a" data-name="Layer 1" viewBox="0 0 24 24"><path d="M1 4.5c0 2.751 2.621 5.508 4.82 7.335a30 30 0 0 0 1.944 1.481c-.166.297-.31.604-.422.924a31 31 0 0 1-2.16-1.635C2.817 10.64 0 7.639 0 4.5 0 2.019 2.019 0 4.5 0c1.752 0 3.257 1.017 4 2.484C9.243 1.018 10.748 0 12.5 0 14.981 0 17 2.019 17 4.5c0 1.024-.317 2.035-.813 3.006a6 6 0 0 0-.951-.337C15.715 6.268 16 5.368 16 4.5 16 2.57 14.43 1 12.5 1S9 2.572 9 4.504H8C8 2.572 6.43 1 4.5 1S1 2.57 1 4.5m23.019 13.25a3.22 3.22 0 0 1-1.008 2.337c.005.061.008.111.008.163a3.755 3.755 0 0 1-3.75 3.75 3.7 3.7 0 0 1-2.759-1.223A3.71 3.71 0 0 1 13.75 24c-1.982 0-3.593-1.551-3.725-3.5 0 0-.022-.359-.017-.413A3.22 3.22 0 0 1 9 17.75c0-.425.088-.845.261-1.25A3.2 3.2 0 0 1 9 15.25c0-1.314.804-2.489 2-2.988v-.012A3.254 3.254 0 0 1 14.25 9c.85 0 1.659.335 2.26.918a3.246 3.246 0 0 1 5.509 2.332v.012c1.196.499 2 1.674 2 2.988 0 .425-.088.845-.261 1.25.173.405.261.825.261 1.25M16 21.79V10.862A2.24 2.24 0 0 0 14.25 10 2.253 2.253 0 0 0 12 12.25c0 .073.082.651.082.651l-.416.187A2.25 2.25 0 0 0 10 15.25q0 .52.258 1.021l.117.229-.117.229A2.2 2.2 0 0 0 10 17.75c0 .434.14.846.376 1.205A3.49 3.49 0 0 1 13.5 17v1a2.495 2.495 0 0 0-2.487 2.375A2.747 2.747 0 0 0 13.75 23c.909 0 1.734-.456 2.25-1.21m6.644-5.29.117-.229c.171-.333.258-.677.258-1.021a2.24 2.24 0 0 0-1.202-1.972c-.433 1.286-1.637 2.222-3.068 2.222v-1c1.241 0 2.25-1.01 2.25-2.25h.019c0-1.24-1.009-2.25-2.25-2.25-.696 0-1.343.333-1.769.883v10.883A2.72 2.72 0 0 0 19.268 23a2.753 2.753 0 0 0 2.75-2.75c0-.066-.064-.581-.064-.581l.214-.173a2.24 2.24 0 0 0 .85-1.746c0-.345-.087-.688-.258-1.021zM18 20h1c0-1.103.897-2 2-2v-1c-1.654 0-3 1.346-3 3m-6-6v1c1.654 0 3-1.346 3-3h-1c0 1.103-.897 2-2 2"/></svg>