<svg xmlns="http://www.w3.org/2000/svg" width="28" height="28" fill="none"><g clip-path="url(#a)"><path fill="#b8865a" d="M17.5 8.75a1.75 1.75 0 1 1 3.5 0 1.75 1.75 0 0 1-3.5 0M15.75 14a1.75 1.75 0 1 0 0-3.498 1.75 1.75 0 0 0 0 3.499m-3.5 3.5a1.75 1.75 0 1 0 0-3.498 1.75 1.75 0 0 0 0 3.499M27.814 4.147l-.087.244c-1.93 5.354-3.773 10.412-8.02 14.806a12.9 12.9 0 0 1-3.85 7.918 3.22 3.22 0 0 1-2.207.887 3.15 3.15 0 0 1-3.15-3.15v-1.903a6.1 6.1 0 0 1-1.875-1.098L6.488 23.99a1.75 1.75 0 0 1-2.476-2.476l2.14-2.14a6.16 6.16 0 0 1-1.336-3.039H3.15A3.15 3.15 0 0 1 0 13.184c.003-.821.32-1.61.887-2.205A13.17 13.17 0 0 1 10.2 7.022c4.056-3.375 8.617-5.017 13.417-6.748l.242-.088a3.094 3.094 0 0 1 3.96 3.96zm-3.585-.374c-5.082 1.835-9.488 3.509-13.262 7.28a30 30 0 0 0-2.242 2.857 2.71 2.71 0 0 0 .305 3.475l1.661 1.657a2.71 2.71 0 0 0 3.472.3 20.5 20.5 0 0 0 2.786-2.307c3.771-3.774 5.451-8.18 7.28-13.262"/></g><defs><clipPath id="a"><path fill="currentColor" d="M0 0h28v28H0z"/></clipPath></defs></svg>