<svg xmlns="http://www.w3.org/2000/svg" width="512" height="512" fill="#b8865a" data-name="Layer 1" viewBox="0 0 24 24"><path d="M15.5 6C14.122 6 13 7.122 13 8.5s1.122 2.5 2.5 2.5S18 9.878 18 8.5 16.878 6 15.5 6m0 4c-.827 0-1.5-.673-1.5-1.5S14.673 7 15.5 7s1.5.673 1.5 1.5-.673 1.5-1.5 1.5M24 2.544A2.55 2.55 0 0 0 21.441 0c-5.16.147-9.295 2.269-12.889 6.645a10.8 10.8 0 0 0-4.686 1.139C2.144 8.649.776 9.953.205 11.272c-.359.83-.264 1.828.247 2.605.469.713 1.2 1.122 2.006 1.122h2.541c1.326 0 2.335.337 2.999 1.001.683.683 1.001 1.604 1.001 2.899v2.541c0 .824.441 1.605 1.18 2.091.473.311 1.007.47 1.535.47.347 0 .69-.068 1.012-.208 1.319-.57 2.624-1.938 3.488-3.661a10.8 10.8 0 0 0 1.139-4.686c4.376-3.593 6.498-7.73 6.645-12.903ZM1.289 13.329a1.78 1.78 0 0 1-.165-1.66c.48-1.11 1.673-2.229 3.191-2.991a9.8 9.8 0 0 1 3.421-.987q-.158.211-.314.43C5.819 10.356 4.561 13.09 4.16 14H2.459c-.464 0-.89-.245-1.17-.671m14.034 6.355c-.763 1.519-1.881 2.711-2.991 3.191-.494.215-1.107.144-1.602-.18-.463-.305-.729-.762-.729-1.255v-1.693c.923-.382 3.649-1.571 5.879-3.171q.217-.156.43-.314a9.8 9.8 0 0 1-.987 3.421Zm-.026-3.919c-1.873 1.343-4.178 2.412-5.3 2.897-.041-1.439-.465-2.543-1.29-3.369-.812-.812-1.972-1.245-3.45-1.29.516-1.128 1.637-3.428 2.979-5.3 3.657-5.102 7.862-7.55 13.22-7.703C22.308 1 23 1.693 23 2.53c-.153 5.372-2.601 9.577-7.704 13.235ZM1.732 18.732c-.604.603-1.461 2.702-1.701 3.752-.096.418.029.849.332 1.152a1.23 1.23 0 0 0 1.153.331c1.05-.24 3.148-1.097 3.752-1.701.473-.472.732-1.1.732-1.768s-.26-1.296-.732-1.768c-.943-.944-2.592-.944-3.535 0ZM4.56 21.56c-.391.391-2.223 1.194-3.268 1.433a.23.23 0 0 1-.222-.064.23.23 0 0 1-.064-.222c.239-1.045 1.042-2.877 1.433-3.268.283-.283.66-.439 1.061-.439s.777.156 1.061.439S5 20.099 5 20.5s-.156.777-.439 1.061Z"/></svg>