<svg xmlns="http://www.w3.org/2000/svg" width="28" height="28" fill="none"><g clip-path="url(#a)"><path fill="#b8865a" d="M5.25 8.167A4.06 4.06 0 0 1 2.363 6.97l-1.78-1.58a1.752 1.752 0 1 1 2.334-2.614l1.848 1.65a.68.68 0 0 0 .485.24.58.58 0 0 0 .412-.17L9.877.482a1.75 1.75 0 0 1 2.413 2.534L8.106 7A4.02 4.02 0 0 1 5.25 8.167M28 4.083a1.75 1.75 0 0 0-1.75-1.75h-9.333a1.75 1.75 0 1 0 0 3.5h9.333A1.75 1.75 0 0 0 28 4.083M8.106 16.333l4.184-3.982a1.75 1.75 0 0 0-2.413-2.535L5.662 13.83a.583.583 0 0 1-.825 0l-1.85-1.85a1.75 1.75 0 0 0-2.475 2.475l1.85 1.85a4.083 4.083 0 0 0 5.744.029M28 13.418a1.75 1.75 0 0 0-1.75-1.75h-9.333a1.75 1.75 0 1 0 0 3.5h9.333a1.75 1.75 0 0 0 1.75-1.75M8.106 25.667l4.184-3.983a1.75 1.75 0 0 0-2.413-2.534l-4.215 4.013a.58.58 0 0 1-.412.17.68.68 0 0 1-.485-.24l-1.848-1.65a1.752 1.752 0 0 0-2.334 2.614l1.777 1.58a4.084 4.084 0 0 0 5.746.03M28 22.75A1.75 1.75 0 0 0 26.25 21h-9.333a1.75 1.75 0 1 0 0 3.5h9.333A1.75 1.75 0 0 0 28 22.75"/></g><defs><clipPath id="a"><path fill="currentColor" d="M0 0h28v28H0z"/></clipPath></defs></svg>