<svg xmlns="http://www.w3.org/2000/svg" width="512" height="512" fill="#b8865a" data-name="Layer 1" viewBox="0 0 24 24"><path d="M12 7c-2.757 0-5 2.243-5 5s2.243 5 5 5 5-2.243 5-5-2.243-5-5-5m0 9c-2.206 0-4-1.794-4-4s1.794-4 4-4 4 1.794 4 4-1.794 4-4 4m9.987-4.5c-.253-5.117-4.37-9.234-9.487-9.487V0h-1v2.013c-5.117.253-9.234 4.37-9.487 9.487H0v1h2.013c.253 5.117 4.37 9.234 9.487 9.487V24h1v-2.013c5.117-.253 9.234-4.371 9.487-9.487H24v-1zM12 21c-4.962 0-9-4.037-9-9s4.038-9 9-9 9 4.037 9 9-4.038 9-9 9"/></svg>