<svg xmlns="http://www.w3.org/2000/svg" width="512" height="512" fill="#b8865a" data-name="Layer 1" viewBox="0 0 24 24"><path d="M19.717 6.172a1.225 1.225 0 0 0 1.566.001C22.298 5.337 24 3.707 24 2.196 24 .985 23.103 0 22 0c-.682 0-1.179.34-1.5.669C20.179.34 19.682 0 19 0c-1.103 0-2 .985-2 2.196 0 1.511 1.702 3.14 2.717 3.976M19 1c.671 0 1.051.719 1.053.724a.5.5 0 0 0 .444.275h.004a.5.5 0 0 0 .444-.272C20.949 1.72 21.329 1 22 1c.552 0 1 .537 1 1.196 0 .792-.88 1.99-2.354 3.206a.23.23 0 0 1-.293 0c-1.474-1.215-2.354-2.413-2.354-3.205 0-.659.448-1.196 1-1.196Zm4.435 7.348C23.81 9.526 24 10.755 24 12c0 6.617-5.383 12-12 12a12 12 0 0 1-3.652-.566.5.5 0 1 1 .305-.952c1.077.344 2.204.519 3.348.519 6.065 0 11-4.935 11-11a11 11 0 0 0-.519-3.348.5.5 0 0 1 .953-.303ZM14 10.5C14 8.848 15.069 7 16.5 7S19 8.848 19 10.5a.5.5 0 0 1-1 0c0-1.215-.771-2.5-1.5-2.5S15 9.285 15 10.5a.5.5 0 0 1-1 0m-8 0a.5.5 0 0 1-1 0C5 8.848 6.069 7 7.5 7S10 8.848 10 10.5a.5.5 0 0 1-1 0C9 9.285 8.229 8 7.5 8S6 9.285 6 10.5m.627 4.667a.5.5 0 0 1 .706-.041c.021.019 2.137 1.873 4.667 1.873s4.646-1.854 4.667-1.873a.5.5 0 0 1 .666.747C17.236 15.959 14.919 18 12 18s-5.236-2.041-5.333-2.127a.5.5 0 0 1-.04-.706m-6.343-.559A12 12 0 0 1 0 12C0 5.383 5.383 0 12 0c.879 0 1.757.096 2.608.284a.5.5 0 0 1-.217.976 11 11 0 0 0-2.392-.261C5.935 1 1 5.935 1 12c0 .809.088 1.613.261 2.392a.5.5 0 1 1-.976.217ZM5 17c-.682 0-1.179.34-1.5.669C3.179 17.34 2.682 17 2 17c-1.103 0-2 .985-2 2.196 0 1.511 1.702 3.14 2.717 3.976a1.225 1.225 0 0 0 1.566.001C5.298 22.337 7 20.707 7 19.196 7 17.985 6.103 17 5 17m-1.354 5.401a.23.23 0 0 1-.293 0C1.879 21.186.999 19.988.999 19.196c0-.659.448-1.196 1-1.196.671 0 1.051.719 1.053.724a.5.5 0 0 0 .444.275H3.5a.5.5 0 0 0 .444-.272c.004-.007.384-.727 1.055-.727.552 0 1 .537 1 1.196 0 .792-.88 1.99-2.354 3.206Z"/></svg>