<svg xmlns="http://www.w3.org/2000/svg" width="28" height="28" fill="none"><g clip-path="url(#a)"><path fill="#b8865a" d="M9.917 8.167a3.02 3.02 0 0 1 2.916 3.111c0 1.555-1.305 1.555-2.916 1.555S7 12.833 7 11.278a3.02 3.02 0 0 1 2.917-3.111m5.25 3.111c0 1.555 1.305 1.555 2.916 1.555 1.612 0 2.917 0 2.917-1.555a3.02 3.02 0 0 0-2.917-3.111 3.02 3.02 0 0 0-2.916 3.111M28 14a14 14 0 1 0-14 14 14.015 14.015 0 0 0 14-14m-3.5 0A10.5 10.5 0 1 1 14 3.5 10.513 10.513 0 0 1 24.5 14m-4.017 4.158a1.75 1.75 0 0 0-2.46-2.489A6.8 6.8 0 0 1 14 17.5a6.78 6.78 0 0 1-4.017-1.825 1.75 1.75 0 0 0-2.466 2.483A10.28 10.28 0 0 0 14 21a10.28 10.28 0 0 0 6.483-2.842"/></g><defs><clipPath id="a"><path fill="currentColor" d="M0 0h28v28H0z"/></clipPath></defs></svg>