<svg xmlns="http://www.w3.org/2000/svg" width="28" height="28" fill="none"><path fill="#b8865a" d="M11.667 2.333a2.333 2.333 0 1 1 4.666 0 2.333 2.333 0 0 1-4.666 0m13.121 13.038a7.96 7.96 0 0 1 1.708 7.792 5.11 5.11 0 0 1-5.076 3.673 5 5 0 0 1-2.122-.567 20 20 0 0 1-3.548-2.363v1.233a1.75 1.75 0 1 1-3.5 0v-1.193a20 20 0 0 1-3.488 2.316 5 5 0 0 1-4.28.169 5.1 5.1 0 0 1-2.918-3.267 7.87 7.87 0 0 1 1.733-7.719 10 10 0 0 1-.575-.516A8.8 8.8 0 0 1 0 8.75c0-7.218 4.374-7.583 5.25-7.583 3.373 0 6.268 3.314 8.75 6.715 2.484-3.4 5.377-6.715 8.75-6.715.877 0 5.25.365 5.25 7.583a8.8 8.8 0 0 1-2.714 6.172 9 9 0 0 1-.498.449M12.25 16.93c-1.122.37-2.295.561-3.477.569a8 8 0 0 1-2.254-.328 4.5 4.5 0 0 0-1.603 4.995 1.63 1.63 0 0 0 .934 1.04 1.49 1.49 0 0 0 1.283-.045c2.984-1.565 4.84-3.6 5.115-4.856zm0-5.483-.433-.605c-1.2-1.694-4.386-6.176-6.567-6.176-1.078 0-1.75 1.563-1.75 4.083a5.3 5.3 0 0 0 1.673 3.684A5 5 0 0 0 8.727 14a6.2 6.2 0 0 0 3.523-.933zm11.14 9.193a4.4 4.4 0 0 0-1.8-3.463l-.02-.018c-.76.227-1.55.345-2.343.35a11.3 11.3 0 0 1-3.477-.569v1.296c.204 1.248 2.116 3.342 5.17 4.942a1.5 1.5 0 0 0 1.29.046 1.63 1.63 0 0 0 .933-1.04c.162-.501.245-1.024.246-1.55zM24.5 8.75c-.107-8.867-6.338-.842-8.311 2.085a70 70 0 0 1-.443.617v1.615A6.17 6.17 0 0 0 19.27 14a4.97 4.97 0 0 0 3.557-1.572A5.3 5.3 0 0 0 24.5 8.75"/></svg>