<svg xmlns="http://www.w3.org/2000/svg" width="28" height="28" fill="none"><g clip-path="url(#a)"><path fill="#b8865a" d="M23.196 5.177A12.881 12.881 0 0 0 .454 9.45a12.79 12.79 0 0 0 2.333 11.248c.441.54.692 1.21.713 1.907v.128A5.265 5.265 0 0 0 8.75 28h5.834a5.26 5.26 0 0 0 4.965-3.545 6.39 6.39 0 0 0 5.565-5.342l.168-1.033A2.865 2.865 0 0 0 28 15.114c0-1.866-3.438-8.251-4.804-9.937m.597 9.407a1.75 1.75 0 0 0-1.727 1.47l-.407 2.497A2.905 2.905 0 0 1 18.784 21h-.7a1.75 1.75 0 0 0-1.75 1.75 1.75 1.75 0 0 1-1.75 1.75H8.75A1.76 1.76 0 0 1 7 22.732v-.128a6.6 6.6 0 0 0-1.447-4.055 9.25 9.25 0 0 1-1.72-8.19 9.41 9.41 0 0 1 7.451-6.727 9.6 9.6 0 0 1 1.563-.133 9.45 9.45 0 0 1 7.584 3.821 38 38 0 0 1 3.879 7.263zm-4.864-5.19a1.75 1.75 0 0 0-2.383-.666l-.826.467a4.7 4.7 0 0 0-1.136-.678v-.933a1.75 1.75 0 0 0-3.5 0v.933c-.41.172-.793.401-1.137.681l-.826-.466a1.751 1.751 0 1 0-1.72 3.052l.825.466a5 5 0 0 0-.06.584q.012.297.06.59l-.825.467a1.75 1.75 0 1 0 1.72 3.05l.826-.467c.345.278.727.506 1.137.677v.933a1.75 1.75 0 1 0 3.5 0v-.933c.409-.172.792-.402 1.136-.682l.826.467a1.75 1.75 0 0 0 1.72-3.05l-.825-.466q.048-.292.06-.586a5 5 0 0 0-.06-.59l.825-.467a1.75 1.75 0 0 0 .663-2.384M14 12.833a1.167 1.167 0 1 1-2.334 0 1.167 1.167 0 0 1 2.334 0"/></g><defs><clipPath id="a"><path fill="currentColor" d="M0 0h28v28H0z"/></clipPath></defs></svg>