<svg xmlns="http://www.w3.org/2000/svg" width="512" height="512" fill="#b8865a" data-name="Layer 1" viewBox="0 0 24 24"><path d="M13.25 6.94c-.95 0-1.76.44-2.26 1.13-.49-.7-1.3-1.13-2.24-1.13C7.23 6.94 6 8.27 6 9.91c0 2.16 2.6 4.52 4.14 5.74a1.385 1.385 0 0 0 1.72 0C13.41 14.44 16 12.08 16 9.91c0-1.64-1.23-2.97-2.75-2.97m-2.01 7.92a.39.39 0 0 1-.48 0C8.4 13.01 7 11.16 7 9.91c0-1.08.79-1.97 1.75-1.97s1.66.66 1.74 1.6a.501.501 0 0 0 1 0c.08-.94.8-1.6 1.76-1.6S15 8.82 15 9.91c0 1.25-1.41 3.1-3.76 4.95m8.53-10.47A11.01 11.01 0 0 0 9.32.13C4.5.85.44 5.29.07 10.23c-.2 2.7.48 5.21 1.97 7.26.63.86.96 1.81.96 2.73v1.28C3 22.97 4.03 24 5.5 24h8a2.5 2.5 0 0 0 2.5-2.5V21h.99c2.11 0 3.96-1.5 4.4-3.57l.52-2.43h.55c1.13 0 1.55-.87 1.55-1.45 0-1.28-2.84-7.43-4.23-9.15ZM22.46 14h-.96c-.24 0-.44.17-.49.4l-.6 2.83A3.51 3.51 0 0 1 16.99 20H15.5c-.28 0-.5.22-.5.5v1c0 .83-.67 1.5-1.5 1.5h-8c-.69 0-1.5-.39-1.5-1.5v-1.28c0-1.14-.4-2.29-1.15-3.32-1.35-1.86-1.96-4.14-1.78-6.6.33-4.49 4.02-8.53 8.4-9.18.5-.08 1.01-.11 1.51-.11 3.13 0 6.1 1.46 8 4 1.41 1.74 4.03 7.68 4.03 8.54 0 .21-.11.46-.55.46Z"/></svg>