<svg xmlns="http://www.w3.org/2000/svg" width="40" height="40" fill="none"><path stroke="currentColor" stroke-linecap="round" stroke-linejoin="round" stroke-width="2" d="M24.167 3.333v5m2.5-2.5h-5M15.19 16.225c0 6.39 5.18 11.57 11.57 11.57.934 0 1.842-.11 2.712-.318.675-.163 1.329.45 1.059 1.091-2.208 5.247-7.398 8.932-13.448 8.932C9.03 37.5 2.5 30.97 2.5 22.917c0-8.055 6.53-14.584 14.583-14.584.476 0 .708.567.422.949a11.5 11.5 0 0 0-2.315 6.944zm16.747 6.612c-.218.662-1.155.662-1.374 0l-1.345-4.094a.73.73 0 0 0-.461-.46l-4.094-1.346c-.662-.219-.662-1.156 0-1.374l4.094-1.346a.73.73 0 0 0 .46-.46l1.346-4.094c.218-.662 1.155-.662 1.374 0l1.345 4.094a.73.73 0 0 0 .461.46l4.094 1.346c.662.219.662 1.156 0 1.374l-4.094 1.345a.73.73 0 0 0-.46.461z"/></svg>