<svg xmlns="http://www.w3.org/2000/svg" fill="#b8865a" data-name="Layer 1" viewBox="0 0 24 24"><path d="M24 9v1h-6.526c.205-.319.384-.652.529-1zM5.997 9H0v1h6.526a6.4 6.4 0 0 1-.529-1m2.822.682c-.851-.85-1.318-1.979-1.318-3.182s.468-2.332 1.318-3.182L12 .206l3.178 3.108c.854.854 1.322 1.983 1.322 3.186s-.468 2.332-1.318 3.182C14.333 10.532 13.203 11 12 11s-2.331-.468-3.182-1.318ZM8.501 6.5c0 .935.364 1.813 1.025 2.475 1.323 1.323 3.63 1.321 4.949 0 .661-.661 1.025-1.54 1.025-2.475s-.364-1.813-1.025-2.475L12 1.604 9.521 4.029A3.47 3.47 0 0 0 8.5 6.5Zm11.03 5.987c-.883.67-2.178.67-3.061 0a2.46 2.46 0 0 0-2.939 0c-.883.67-2.178.67-3.061 0a2.46 2.46 0 0 0-2.939 0c-.883.67-2.178.67-3.061 0a2.46 2.46 0 0 0-2.939 0A2.5 2.5 0 0 1 .001 13v1c.78 0 1.52-.248 2.136-.718a1.47 1.47 0 0 1 1.729 0c1.232.939 3.039.939 4.271 0a1.47 1.47 0 0 1 1.729 0c1.232.939 3.039.939 4.271 0a1.47 1.47 0 0 1 1.729 0c1.232.939 3.039.939 4.271 0a1.47 1.47 0 0 1 1.729 0c.616.47 1.355.718 2.136.718v-1c-.56 0-1.089-.178-1.53-.513a2.46 2.46 0 0 0-2.939 0ZM6.001 19a1 1 0 1 0 0 2 1 1 0 0 0 0-2m3-3a1 1 0 1 0 0 2 1 1 0 0 0 0-2m-6 0a1 1 0 1 0 0 2 1 1 0 0 0 0-2m12 0a1 1 0 1 0 0 2 1 1 0 0 0 0-2m6 0a1 1 0 1 0 0 2 1 1 0 0 0 0-2m-12 6a1 1 0 1 0 0 2 1 1 0 0 0 0-2m-6 0a1 1 0 1 0 0 2 1 1 0 0 0 0-2m12 0a1 1 0 1 0 0 2 1 1 0 0 0 0-2m6 0a1 1 0 1 0 0 2 1 1 0 0 0 0-2m-9-3a1 1 0 1 0 0 2 1 1 0 0 0 0-2m6 0a1 1 0 1 0 0 2 1 1 0 0 0 0-2"/></svg>