<svg xmlns="http://www.w3.org/2000/svg" width="24" height="24" fill="currentColor" data-name="Layer 1"><path d="M23.5 9a11.6 11.6 0 0 0-6.815 2.218c-.181-3.354-1.701-6.607-4.331-9.238L12 1.626l-.354.354c-2.631 2.63-4.15 5.884-4.331 9.238A11.6 11.6 0 0 0 .5 9H0v.5c0 6.718 5.114 12.214 11.5 12.488V22h1v-.012C18.886 21.714 24 16.218 24 9.5V9zM8.297 11.996C8.27 8.79 9.581 5.633 12 3.053c2.419 2.58 3.73 5.738 3.703 8.943h.012A12.6 12.6 0 0 0 12 17.928a12.6 12.6 0 0 0-3.715-5.932zm-7.286-1.984c5.667.272 10.229 5.048 10.479 10.976-5.667-.272-10.229-5.048-10.479-10.976m11.5 10.976c.25-5.928 4.811-10.704 10.479-10.976-.25 5.928-4.811 10.704-10.479 10.976"/></svg>