<svg xmlns="http://www.w3.org/2000/svg" width="40" height="40" fill="none"><path fill="currentColor" d="M19.07 24.295h1.86l.122-1.538q.652-.126 1.245-.437.591-.31.991-.807l1.34.674.93-1.584-1.218-.898q.275-.685.275-1.372 0-.686-.275-1.371l1.217-.897-.929-1.583-1.34.671a3.1 3.1 0 0 0-.991-.806 4.5 4.5 0 0 0-1.245-.437l-.122-1.538h-1.86l-.122 1.538a4.5 4.5 0 0 0-1.245.437 3.1 3.1 0 0 0-.991.806l-1.34-.671-.929 1.583 1.217.897a3.7 3.7 0 0 0-.275 1.371q0 .685.275 1.372l-1.217.898.929 1.584 1.34-.674q.4.496.991.807.592.312 1.245.437zm-1.273-3.758q-.905-.905-.905-2.204 0-1.298.905-2.203.904-.905 2.203-.905t2.203.905q.907.905.907 2.203 0 1.299-.907 2.204-.904.906-2.203.906t-2.203-.906M11.667 35v-6.27Q9.29 26.563 7.98 23.86t-1.313-5.558q0-5.545 3.895-9.424Q14.455 5 20 5q4.503 0 8.14 2.742t4.717 7.083l2.121 8.508H30v8.334h-6.667V35h-1.666v-5h6.666v-8.333h4.5l-1.583-6.459q-.958-3.824-4.117-6.183Q23.98 6.667 20 6.667q-4.833 0-8.25 3.391T8.333 18.28q0 2.5 1.022 4.733a12.5 12.5 0 0 0 2.895 3.985l1.083 1V35z"/></svg>