<svg xmlns="http://www.w3.org/2000/svg" fill="#b8865a" data-name="Layer 1" viewBox="0 0 24 24"><path d="M6 3.5v-3a.5.5 0 0 1 1 0v3a.5.5 0 0 1-1 0m8.5.5a.5.5 0 0 0 .5-.5v-3a.5.5 0 0 0-1 0v3a.5.5 0 0 0 .5.5m-4 0a.5.5 0 0 0 .5-.5v-3a.5.5 0 0 0-1 0v3a.5.5 0 0 0 .5.5M24 13c0 1.654-1.346 3-3 3h-2.175c-.679 2.863-3.257 5-6.325 5h-1a.5.5 0 0 1 0-1h1c3.033 0 5.5-2.468 5.5-5.5v-6c0-.827-.673-1.5-1.5-1.5h-12C3.673 7 3 7.673 3 8.5v3a.5.5 0 0 1-1 0v-3C2 7.121 3.122 6 4.5 6h12C17.878 6 19 7.121 19 8.5V10h2c1.654 0 3 1.346 3 3m-1 0c0-1.103-.897-2-2-2h-2v3.5q0 .252-.019.5H21c1.103 0 2-.897 2-2m-2.5 10H.5a.5.5 0 0 0 0 1h20a.5.5 0 0 0 0-1M.015 18.717a.5.5 0 0 1 .606-.364c.384.096.807.146 1.225.146q.216 0 .429-.016c-.528-1.364-.14-2.595-.118-2.661a3.95 3.95 0 0 1 1.075-1.732c1.526-1.43 3.77-1.75 5.574-2.008l.338-.049c.434-.062.883.055 1.228.328.346.273.558.667.596 1.108.126 1.46-.016 4.24-2.383 6.456a3.92 3.92 0 0 1-2.696 1.074c-1.037-.05-2.175-.508-2.857-1.282a4 4 0 0 1-.232-.287q-.47.068-.952.069c-.505 0-.999-.06-1.467-.176a.5.5 0 0 1-.364-.606zm3.275-.404c1.488-.397 2.874-1.44 4.349-3.244a.5.5 0 0 1 .704-.07.5.5 0 0 1 .071.703c-1.487 1.82-2.96 2.956-4.523 3.472a2.77 2.77 0 0 0 1.855.824 2.94 2.94 0 0 0 2.155-.802c2.059-1.927 2.181-4.36 2.071-5.64a.592.592 0 0 0-.592-.539c-.03 0-.433.056-.433.056-1.751.25-3.736.533-5.032 1.748a3 3 0 0 0-.806 1.307 3.22 3.22 0 0 0 .181 2.185m2.598 2.688c-.063 0 .064.003 0 0"/></svg>