<svg xmlns="http://www.w3.org/2000/svg" width="28" height="28" fill="none"><g clip-path="url(#a)"><path fill="#b8865a" d="M16.476 28h-4.953a10.23 10.23 0 0 1-7.183-2.908 16.45 16.45 0 0 1-4.137-7.047 4.97 4.97 0 0 1 4.758-6.378h18.083a4.998 4.998 0 0 1 4.759 6.378 16.46 16.46 0 0 1-4.14 7.046A10.22 10.22 0 0 1 16.477 28M4.96 15.167a1.43 1.43 0 0 0-1.167.583 1.48 1.48 0 0 0-.233 1.316 13.1 13.1 0 0 0 3.247 5.547 6.7 6.7 0 0 0 4.715 1.887h4.953a6.7 6.7 0 0 0 4.713-1.888 13.1 13.1 0 0 0 3.25-5.548 1.48 1.48 0 0 0-.234-1.316 1.42 1.42 0 0 0-1.167-.584zm14.873-7.584a6.03 6.03 0 0 0-1.68-4.254A2.06 2.06 0 0 1 17.5 1.75 1.75 1.75 0 0 0 15.75 0 1.75 1.75 0 0 0 14 1.75a5.55 5.55 0 0 0 1.679 4.052c.44.487.674 1.125.655 1.781a1.75 1.75 0 0 0 3.5 0M14 8.75v-.36a5.73 5.73 0 0 0-1.679-4.052 2.22 2.22 0 0 1-.654-1.58V1.75a1.75 1.75 0 1 0-3.5 0v1.008a5.7 5.7 0 0 0 1.68 4.054 2.1 2.1 0 0 1 .653 1.579v.359a1.75 1.75 0 0 0 3.5 0"/></g><defs><clipPath id="a"><path fill="#fff" d="M0 0h28v28H0z"/></clipPath></defs></svg>