<svg xmlns="http://www.w3.org/2000/svg" width="512" height="512" fill="#b8865a" data-name="Layer 1" viewBox="0 0 24 24"><path d="M2.257 9.298.623 8.885a.5.5 0 1 0-.245.968l1.635.413a.64.64 0 0 1 .394.294c.088.147.113.32.071.487l-.413 1.635a.5.5 0 1 0 .969.244l.413-1.634c.066-.264.067-.534.004-.791l2.19-1.331a2.5 2.5 0 0 0 1.358.779v2.595a1.65 1.65 0 0 0-.675.409l-1.192 1.191a.5.5 0 0 0 .707.707l1.192-1.191a.656.656 0 0 1 .909 0l1.192 1.191a.5.5 0 0 0 .708 0 .5.5 0 0 0 0-.707l-1.191-1.191a1.6 1.6 0 0 0-.648-.4V9.948c.53-.108 1-.385 1.351-.771l2.219 1.325a1.6 1.6 0 0 0 .005.788l.413 1.635a.5.5 0 0 0 .607.362.5.5 0 0 0 .362-.606l-.413-1.636a.64.64 0 0 1 .466-.78l1.634-.413a.5.5 0 0 0 .362-.606.497.497 0 0 0-.607-.362l-1.634.413a1.6 1.6 0 0 0-.676.352l-2.228-1.33a2.5 2.5 0 0 0-.009-1.665l2.216-1.322c.196.177.434.305.697.37l1.634.413a.5.5 0 1 0 .245-.968l-1.635-.413a.64.64 0 0 1-.466-.781l.413-1.635a.5.5 0 1 0-.969-.244l-.413 1.634a1.64 1.64 0 0 0-.011.762L9.332 5.802A2.5 2.5 0 0 0 8 5.051V2.445c.242-.079.463-.215.648-.4L9.84.854a.5.5 0 0 0-.707-.707L7.941 1.338a.656.656 0 0 1-.909 0L5.84.146a.5.5 0 0 0-.707.707l1.191 1.191c.192.192.423.331.676.409v2.596a2.5 2.5 0 0 0-1.339.759L3.458 4.47a1.6 1.6 0 0 0-.011-.763l-.413-1.635a.5.5 0 0 0-.607-.362.5.5 0 0 0-.362.606l.413 1.636a.64.64 0 0 1-.466.78l-1.634.413a.5.5 0 0 0-.362.606c.068.27.341.432.607.362L2.257 5.7c.263-.065.5-.192.695-.368l2.192 1.331a2.48 2.48 0 0 0-.01 1.644l-2.203 1.34a1.6 1.6 0 0 0-.674-.351ZM7.5 6C8.008 6 9 6.308 9 7.5S8.015 9 7.5 9C6.673 9 6 8.327 6 7.5S6.673 6 7.5 6M23 5.5C23 4.121 21.878 3 20.5 3c-1.106 0-2.193.717-2.528 1.667a.5.5 0 0 1-.943-.334C17.507 2.981 18.967 2 20.501 2c1.93 0 3.5 1.57 3.5 3.5s-1.57 3.5-3.5 3.5h-3a.5.5 0 0 1 0-1h3c1.378 0 2.5-1.121 2.5-2.5Zm1 10c0 1.93-1.57 3.5-3.5 3.5-1.534 0-2.994-.981-3.472-2.333a.501.501 0 0 1 .943-.334c.335.95 1.422 1.667 2.528 1.667 1.378 0 2.5-1.121 2.5-2.5s-1.122-2.5-2.5-2.5h-5a.5.5 0 0 1 0-1h5c1.93 0 3.5 1.57 3.5 3.5Zm-9 5c0 1.93-1.57 3.5-3.5 3.5-1.534 0-2.994-.981-3.472-2.333a.501.501 0 0 1 .943-.334c.335.95 1.422 1.667 2.528 1.667 1.378 0 2.5-1.121 2.5-2.5s-1.122-2.5-2.5-2.5H.5a.5.5 0 0 1 0-1h11c1.93 0 3.5 1.57 3.5 3.5"/></svg>