<svg xmlns="http://www.w3.org/2000/svg" width="28" height="28" fill="none"><g clip-path="url(#a)"><path fill="#b8865a" d="m25.862 15.726-2.857.68c-.36.092-.703.237-1.02.43l-2.323-1.427c.25-.922.25-1.894 0-2.816l2.323-1.427c.317.193.66.337 1.02.429 0 0 3.127.728 3.262.728a1.743 1.743 0 0 0 .402-3.434l-2.861-.684a.24.24 0 0 1-.154-.116.24.24 0 0 1-.03-.188l.68-2.858a1.743 1.743 0 1 0-3.384-.8L20.239 7.1c-.08.358-.106.726-.078 1.092l-2.323 1.433a5.8 5.8 0 0 0-2.046-1.136V5.753c.33-.167.632-.384.897-.642l2.078-2.077A1.743 1.743 0 0 0 16.302.57L14.225 2.65a.246.246 0 0 1-.349 0L11.796.57a1.743 1.743 0 1 0-2.464 2.465l2.078 2.078c.265.257.567.473.897.64v2.736a5.8 5.8 0 0 0-2.04 1.14l-2.33-1.437c.03-.368.003-.74-.077-1.1l-.681-2.85a1.743 1.743 0 1 0-3.39.808l.68 2.858a.24.24 0 0 1-.03.188.24.24 0 0 1-.153.116l-2.856.677a1.743 1.743 0 0 0 .402 3.438c.134 0 3.262-.729 3.262-.729.359-.091.703-.236 1.02-.428l2.323 1.426a5.36 5.36 0 0 0 0 2.816L6.114 16.84a3.7 3.7 0 0 0-1.02-.429l-2.857-.68a1.743 1.743 0 1 0-.807 3.382l2.856.681c.065.016.12.058.154.116a.24.24 0 0 1 .03.188l-.681 2.858a1.743 1.743 0 1 0 3.39.813l.68-2.857c.081-.362.108-.733.078-1.102l2.33-1.432c.595.515 1.289.904 2.04 1.14v2.732a3.7 3.7 0 0 0-.897.642l-2.078 2.075a1.743 1.743 0 0 0 2.465 2.465l2.077-2.078a.246.246 0 0 1 .348 0l2.077 2.078a1.743 1.743 0 0 0 2.466-2.465l-2.079-2.077a3.7 3.7 0 0 0-.894-.64v-2.736a5.8 5.8 0 0 0 2.04-1.14l2.323 1.432c-.029.368-.003.739.078 1.1l.68 2.858a1.743 1.743 0 1 0 3.39-.814l-.68-2.857a.24.24 0 0 1 .03-.189.24.24 0 0 1 .153-.116l2.857-.68a1.743 1.743 0 0 0-.813-3.39zm-11.813.598a2.323 2.323 0 1 1 0-4.647 2.323 2.323 0 0 1 0 4.647"/></g><defs><clipPath id="a"><path fill="#fff" d="M0 0h28v28H0z"/></clipPath></defs></svg>