<svg xmlns="http://www.w3.org/2000/svg" width="28" height="28" fill="none"><g fill="#b8865a" clip-path="url(#a)"><path d="M7.583 15.166H1.75a1.75 1.75 0 0 1 0-3.5h5.833a1.75 1.75 0 1 1 0 3.5M21.583 15.168h-8.166a1.75 1.75 0 0 1 0-3.5h8.166A2.92 2.92 0 0 0 24.5 8.714a2.37 2.37 0 0 0-1.932-2.265 2.333 2.333 0 0 0-2.735 2.302 1.75 1.75 0 0 1-1.75 1.75c-3.228-.371-1.374-4.93.304-6.193A5.834 5.834 0 0 1 28 8.67a6.42 6.42 0 0 1-6.417 6.498M8.167 9.333H1.75a1.75 1.75 0 0 1 0-3.5h6.417a1.25 1.25 0 0 0 1.254-.906 1.15 1.15 0 0 0-.243-.955 1.35 1.35 0 0 0-1.961.103 1.75 1.75 0 1 1-2.715-2.209 4.812 4.812 0 0 1 7.358-.135 4.65 4.65 0 0 1 1.001 3.82 4.7 4.7 0 0 1-4.694 3.782M18.183 28.008a5.64 5.64 0 0 1-4.328-2.044 1.751 1.751 0 0 1 2.71-2.216 2.027 2.027 0 0 0 2.966.128 1.76 1.76 0 0 0 .376-1.465 1.87 1.87 0 0 0-1.896-1.412H1.75a1.75 1.75 0 0 1 0-3.5h16.261a5.34 5.34 0 0 1 5.34 4.291 5.256 5.256 0 0 1-5.168 6.218"/></g><defs><clipPath id="a"><path fill="#fff" d="M0 0h28v28H0z"/></clipPath></defs></svg>