<svg xmlns="http://www.w3.org/2000/svg" fill="#b8865a" data-name="Layer 1" viewBox="0 0 24 24"><path d="M8 12H0v-1h8zm12.5-1h-.175A4.5 4.5 0 0 0 22 7.5C22 5.019 19.981 3 17.5 3S13 5.019 13 7.5V8h1v-.5C14 5.57 15.57 4 17.5 4S21 5.57 21 7.5 19.43 11 17.5 11H10v1h10.5c1.378 0 2.5 1.121 2.5 2.5S21.878 17 20.5 17 18 15.879 18 14.5V14h-1v.5c0 1.93 1.57 3.5 3.5 3.5s3.5-1.57 3.5-3.5-1.57-3.5-3.5-3.5M11 16H0v1h11c1.654 0 3 1.346 3 3s-1.346 3-3 3-3-1.346-3-3H7c0 2.206 1.794 4 4 4s4-1.794 4-4-1.794-4-4-4m0-12.5C11 1.57 9.43 0 7.5 0S4 1.57 4 3.5V4h1v-.5C5 2.121 6.122 1 7.5 1S10 2.121 10 3.5 8.878 6 7.5 6H0v1h7.5C9.43 7 11 5.43 11 3.5"/></svg>