<svg xmlns="http://www.w3.org/2000/svg" width="28" height="28" fill="none"><path fill="#b8865a" d="M19.833 8.93v-.763A2.333 2.333 0 0 0 17.5 5.833V3.5h4.083a1.75 1.75 0 0 0 0-3.5h-7A4.083 4.083 0 0 0 10.5 4.083v1.75a2.333 2.333 0 0 0-2.333 2.334v.764a11.01 11.01 0 0 0-5.834 9.736v1.75A7.593 7.593 0 0 0 9.917 28h8.166a7.593 7.593 0 0 0 7.584-7.583v-1.75a11.02 11.02 0 0 0-5.834-9.736m2.334 11.487a4.083 4.083 0 0 1-4.084 4.083H9.917a4.083 4.083 0 0 1-4.084-4.083v-1.75a7.55 7.55 0 0 1 4.675-7h6.984a7.55 7.55 0 0 1 4.675 7zm-2.334-.584a2.333 2.333 0 0 1-2.333 2.334h-7a2.333 2.333 0 0 1 0-4.667h7a2.333 2.333 0 0 1 2.333 2.333"/></svg>