<svg xmlns="http://www.w3.org/2000/svg" data-name="Layer 1" viewBox="0 0 24 24" fill='#b8865a'><path d="M11.002 8.663a1.645 1.645 0 0 0 1.996 0C14.036 7.871 17 5.084 17 2.75a2.75 2.75 0 0 0-5-1.58A2.75 2.75 0 0 0 9.75 0 2.75 2.75 0 0 0 7 2.75c0 2.334 2.964 5.121 4.002 5.913M9.75 1c.965 0 1.75.785 1.75 1.75a.5.5 0 0 0 1 0c0-.965.785-1.75 1.75-1.75S16 1.785 16 2.75c0 1.613-2.153 4.008-3.609 5.118a.644.644 0 0 1-.781 0c-1.456-1.11-3.609-3.505-3.609-5.118 0-.965.785-1.75 1.75-1.75ZM12 12c-1.654 0-3 1.346-3 3s1.346 3 3 3 3-1.346 3-3-1.346-3-3-3m0 5c-1.103 0-2-.897-2-2s.897-2 2-2 2 .897 2 2-.897 2-2 2m9.854-3.146L16 19.708v3.793a.5.5 0 0 1-1 0v-3.5H9v3.5a.5.5 0 0 1-1 0v-3.793l-5.854-5.854a.5.5 0 0 1 .707-.707l5.854 5.854h6.586l5.854-5.854a.5.5 0 0 1 .707.707"/></svg>