<svg xmlns="http://www.w3.org/2000/svg" width="40" height="40" fill="none"><path fill="currentColor" d="M31.667 10h-3.334c0-4.667-3.666-8.333-8.333-8.333S11.667 5.333 11.667 10H8.333A3.343 3.343 0 0 0 5 13.333v20c0 1.834 1.5 3.334 3.333 3.334h23.334c1.833 0 3.333-1.5 3.333-3.334v-20C35 11.5 33.5 10 31.667 10M20 5c2.833 0 5 2.167 5 5H15c0-2.833 2.167-5 5-5m11.667 28.333H8.333v-20h23.334zM20 20c-2.833 0-5-2.167-5-5h-3.333c0 4.667 3.666 8.333 8.333 8.333s8.333-3.666 8.333-8.333H25c0 2.833-2.167 5-5 5"/></svg>