<svg xmlns="http://www.w3.org/2000/svg" width="16" height="17" fill="none"><path fill="#b8865a" d="M2.722 3.618c.015 2.537 1.18 6.269 2.424 8.265 1.052 1.687 2.326 2.922 3.92 3.718-2.806 1.081-5.504 0-7.002-1.447C.105 12.264-.272 9.782.249 7.177.96 3.617 1.529 2.312 2.362.04 3.7 3.848 7.797 3.138 9.752 6.613c1.414 2.516 1.23 6.037-.23 8.261-2.446-.702-5.51-4.616-6.8-11.256"/><path fill="#b8865a" d="M14.873 8.637c-.789 1.052-1.959 1.8-3.833 1.523v-.4c.914-.556 1.487-1.389 2.086-2.254a6.87 6.87 0 0 0 1.204-4.251c-.546 3.02-1.983 4.696-3.45 5.585-.024-.452-.143-.834-.272-1.252-.18-.578-.483-1.178-.848-1.628-.338-.417-.671-.807-1.072-1.097.083-.16.078-.16.174-.315 1.33-2.14 4.919-2.24 5.778-4.548.703 1.3 1.21 2.966 1.33 4.438.119 1.473-.209 3.013-1.097 4.2"/></svg>